<svg width="43" height="42" viewBox="0 0 43 42" fill="none" xmlns="http://www.w3.org/2000/svg">
<path fill-rule="evenodd" clip-rule="evenodd" d="M15.81 15.2756C17.3282 13.7574 19.3874 12.9045 21.5344 12.9045C23.6815 12.9045 25.7406 13.7574 27.2588 15.2756C28.777 16.7938 29.6299 18.8529 29.6299 21C29.6299 23.1471 28.777 25.2062 27.2588 26.7244C25.7406 28.2426 23.6815 29.0955 21.5344 29.0955C19.3874 29.0955 17.3282 28.2426 15.81 26.7244C14.2918 25.2062 13.4389 23.1471 13.4389 21C13.4389 18.8529 14.2918 16.7938 15.81 15.2756ZM19.5233 25.8552C20.1609 26.1193 20.8443 26.2553 21.5344 26.2553C22.9282 26.2553 24.2649 25.7016 25.2504 24.716C26.236 23.7305 26.7897 22.3938 26.7897 21C26.7897 19.6062 26.236 18.2695 25.2504 17.284C24.2649 16.2984 22.9282 15.7448 21.5344 15.7448C20.8443 15.7448 20.1609 15.8807 19.5233 16.1448C18.8857 16.4089 18.3064 16.796 17.8184 17.284C17.3304 17.772 16.9433 18.3513 16.6792 18.9889C16.4151 19.6265 16.2792 20.3099 16.2792 21C16.2792 21.6901 16.4151 22.3735 16.6792 23.0111C16.9433 23.6487 17.3304 24.228 17.8184 24.716C18.3064 25.204 18.8857 25.5911 19.5233 25.8552Z" fill="#22A922"/>
<path d="M31.4246 14.1106C31.7835 13.7518 31.9851 13.265 31.9851 12.7575C31.9851 12.25 31.7835 11.7632 31.4246 11.4044C31.0657 11.0455 30.579 10.8439 30.0714 10.8439C29.5639 10.8439 29.0772 11.0455 28.7183 11.4044C28.3594 11.7632 28.1578 12.25 28.1578 12.7575C28.1578 13.265 28.3594 13.7518 28.7183 14.1106C29.0772 14.4695 29.5639 14.6711 30.0714 14.6711C30.579 14.6711 31.0657 14.4695 31.4246 14.1106Z" fill="#22A922"/>
<path fill-rule="evenodd" clip-rule="evenodd" d="M15.0412 5.3445C16.7212 5.26785 17.2567 5.25 21.5344 5.25C25.8132 5.25 26.3476 5.2689 28.0266 5.3445C29.7034 5.42115 30.85 5.6889 31.8517 6.07635C32.9023 6.47205 33.8539 7.09193 34.6405 7.89285C35.4417 8.67964 36.0616 9.63172 36.457 10.6827C36.8466 11.6844 37.1133 12.83 37.1899 14.5068C37.2666 16.1868 37.2844 16.7223 37.2844 21C37.2844 25.2777 37.2666 25.8132 37.1899 27.4932C37.1133 29.17 36.8466 30.3156 36.4581 31.3173C36.0624 32.3678 35.4425 33.3195 34.6416 34.1061C33.8541 34.9083 32.9017 35.5278 31.8517 35.9226C30.85 36.3121 29.7045 36.5788 28.0276 36.6555C26.3476 36.7322 25.8121 36.75 21.5344 36.75C17.2567 36.75 16.7212 36.7322 15.0412 36.6555C13.3644 36.5788 12.2188 36.3121 11.2171 35.9236C10.1666 35.5279 9.21494 34.908 8.42832 34.1072C7.62612 33.3196 7.00662 32.3673 6.61182 31.3173C6.22227 30.3156 5.95557 29.17 5.87892 27.4932C5.80227 25.8132 5.78442 25.2787 5.78442 21C5.78442 16.7212 5.80332 16.1868 5.87892 14.5078C5.95557 12.831 6.22332 11.6844 6.61077 10.6827C7.00647 9.63217 7.62636 8.68049 8.42727 7.8939C9.21477 7.0917 10.1671 6.4722 11.2171 6.0774C12.2188 5.68785 13.3644 5.42115 15.0412 5.3445ZM27.8995 8.1795C26.2384 8.1039 25.7397 8.08815 21.5344 8.08815C17.3292 8.08815 16.8304 8.1039 15.1693 8.1795C13.6342 8.24985 12.8005 8.50605 12.2451 8.72235C11.5609 8.97432 10.942 9.37655 10.4338 9.8994C9.88362 10.4506 9.54132 10.9756 9.25677 11.7106C9.03942 12.2661 8.78427 13.0998 8.71392 14.6349C8.63832 16.296 8.62257 16.7947 8.62257 21C8.62257 25.2052 8.63832 25.704 8.71392 27.3651C8.78427 28.9002 9.04047 29.7339 9.25677 30.2894C9.50891 30.9734 9.91111 31.5924 10.4338 32.1006C10.942 32.6234 11.561 33.0256 12.2451 33.2776C12.8005 33.495 13.6342 33.7501 15.1693 33.8205C16.8304 33.8961 17.3281 33.9118 21.5344 33.9118C25.7407 33.9118 26.2384 33.8961 27.8995 33.8205C29.4346 33.7501 30.2683 33.4939 30.8238 33.2776C31.508 33.0257 32.1269 32.6235 32.635 32.1006C33.1578 31.5924 33.56 30.9735 33.8121 30.2894C34.0294 29.7339 34.2846 28.9002 34.3549 27.3651C34.4305 25.704 34.4463 25.2052 34.4463 21C34.4463 16.7947 34.4305 16.296 34.3549 14.6349C34.2846 13.0998 34.0284 12.2661 33.8121 11.7106C33.5275 10.9756 33.1863 10.4506 32.635 9.8994C32.0838 9.3492 31.5588 9.0069 30.8238 8.72235C30.2683 8.505 29.4346 8.24985 27.8995 8.1795Z" fill="#22A922"/>
</svg>
