<svg width="179" height="70" viewBox="0 0 179 70" fill="none" xmlns="http://www.w3.org/2000/svg">
<g clip-path="url(#clip0_1_67)">
<path d="M128.481 39.0581C123.483 39.1429 120.255 40.4499 118.889 43.9916C118.889 41.5772 118.924 38.9883 118.924 38.9883H113.701V69.228H118.924V54.158C118.924 50.4067 121.388 43.7921 128.481 43.7921V39.0581Z" fill="black"/>
<path d="M133.924 51.564C134.278 47.5484 135.994 43.7372 140.942 43.7372C145.607 43.7372 147.532 47.2241 147.622 51.564H133.929H133.924ZM141.017 39.0331C131.729 39.0331 127.558 46.3611 127.558 54.6518C127.558 62.9426 131.305 69.8615 140.713 69.8615C149.024 69.8615 152.176 64.6237 153.309 60.7277H147.183C146.45 62.5186 145.138 64.8831 140.912 64.8831C136.158 64.8831 133.779 60.7826 133.774 55.6944H153.678C153.743 55.0908 153.758 53.9585 153.758 53.295C153.758 46.416 150.685 39.0331 141.017 39.0331Z" fill="black"/>
<path d="M112.444 34.6284V29.2559H100.626H94.7198H86.8281V69.2329H93.1085V51.8683H111.236V46.5207H93.1085V34.6284H112.444Z" fill="black"/>
<path d="M64.6548 51.564C65.009 47.5483 66.725 43.7372 71.6735 43.7372C76.3376 43.7372 78.2632 47.2241 78.353 51.564H64.6598H64.6548ZM58.2896 54.6518C58.2896 62.6133 62.0409 69.8615 71.444 69.8615C79.7547 69.8615 82.9074 64.6236 84.0397 60.7277H77.914C77.1807 62.5185 75.8687 64.883 71.6436 64.883C66.8896 64.883 64.5101 60.7826 64.5051 55.6944H84.4089C84.4737 55.0908 84.4887 53.9584 84.4887 53.29C84.4887 46.416 81.4158 39.0281 71.7483 39.0281C62.0808 39.0281 58.2896 46.3511 58.2896 54.6468M45.7936 24.5169L57.671 16.6202L69.8926 24.5169H78.9466L57.666 10.7688L36.9841 24.5169H45.7837H45.7936ZM22.9218 58.6226L7.59744 34.793C7.46774 34.5934 7.6124 34.3291 7.85184 34.5585H22.9218V58.6226ZM130.212 24.1826L123.678 19.1144H89.4123C88.7039 19.1144 88.0105 18.9099 87.4169 18.5308L59.7612 0.74713C58.4891 -0.0709681 56.8579 -0.0709681 55.5859 0.74713L24.6628 20.6309C23.5803 21.3293 22.9218 22.5265 22.9218 23.8185V29.2559H2.39453C0.503925 29.2559 -0.638419 31.351 0.384204 32.9423L22.9268 68.0008C23.4207 68.769 24.2687 69.2329 25.1766 69.2329H26.4336C27.2917 69.2329 27.99 68.5345 27.99 67.6765V34.5585H42.1471C46.4571 34.3291 48.8416 36.484 48.8416 39.8812C48.8416 43.4728 46.7664 45.518 41.6184 45.518H31.881V50.5962H41.3889C47.2852 50.5962 49.9041 53.2002 49.9041 57.3356C49.9041 61.9848 46.7414 64.1797 41.9925 64.1797H31.881V69.2379H42.8255C50.8319 69.2379 56.4589 64.8132 56.4589 57.3855C56.4589 51.579 52.513 48.8004 49.7295 47.8127C52.4133 46.815 55.1868 44.1313 55.1868 39.2975C55.1868 33.6756 51.1861 29.2608 42.7258 29.2608H27.99V25.33C27.99 24.8262 28.2444 24.3572 28.6685 24.0879L56.399 6.25433C57.1772 5.75549 58.1749 5.75549 58.9531 6.25433L86.0002 23.6439C86.5489 23.9981 87.1874 24.1826 87.8409 24.1826H130.217H130.212Z" fill="#27A94A"/>
<path d="M173.836 19.1494C173.836 19.1494 173.791 19.1494 173.771 19.1494H158.292L145.711 8.56895H142.459L147.577 19.0496L139.67 19.0346L130.252 14.7845L125.004 14.7695L130.601 19.1144L137.136 24.1827L137.181 24.2176L173.671 24.2026C173.726 24.2026 173.781 24.2026 173.831 24.2026C176.659 24.2026 178.954 23.0702 178.954 21.6735C178.954 20.2767 176.659 19.1444 173.831 19.1444" fill="black"/>
<path d="M162.707 52.0828V43.847H168.728V38.9882H162.707V29.186H156.571V38.9882H149.053L155.249 43.822H156.571V62.2043C156.571 67.2625 158.566 69.6071 163.53 69.6071C164.852 69.6071 166.757 69.5422 168.109 69.0633V64.6336C167.386 64.7783 166.568 64.8132 165.889 64.8132C163.345 64.8132 162.707 63.6808 162.707 61.1817V52.0778V52.0828Z" fill="black"/>
</g>
<defs>
<clipPath id="clip0_1_67">
<rect width="178.959" height="69.7329" fill="white" transform="translate(0 0.133556)"/>
</clipPath>
</defs>
</svg>
