<svg width="68" height="55" viewBox="0 0 68 55" fill="none" xmlns="http://www.w3.org/2000/svg">
<g clip-path="url(#clip0_2_48)">
<path d="M50.57 15.8601H44.85H37.2V54.5801H43.29V37.7701H60.84V32.5901H43.29V21.0701H62.01V15.8601H50.57Z" fill="black"/>
<path d="M0 11.8301H6.49L15.25 5.36006L24.26 11.8301H30.94L15.25 0.560059L0 11.8301Z" fill="#27A94A"/>
<path d="M63.94 8C63.94 8 63.91 8 63.89 8H52.18L42.67 0H40.21L44.08 7.93H38.1L30.98 4.71H27.01L31.24 7.98L36.18 11.81L36.21 11.84H63.8C63.8 11.84 63.88 11.83 63.92 11.83C66.06 11.83 67.79 10.97 67.79 9.92C67.79 8.87 66.05 8.01 63.92 8.01" fill="black"/>
<path d="M26.9 33.8301C29.5 32.8601 32.18 30.2701 32.18 25.5801C32.18 20.1401 28.3 15.8601 20.11 15.8601H1.24001V54.5801H6.03001V21.0001H19.56C23.73 20.7801 26.04 22.8701 26.04 26.1601C26.04 29.6401 24.03 31.6201 19.05 31.6201H9.62001V36.5401H18.83C24.54 36.5401 27.08 39.0601 27.08 43.0701C27.08 47.5801 24.02 49.7001 19.42 49.7001H9.62001V54.6001H20.22C27.97 54.6001 33.42 50.3201 33.42 43.1201C33.42 37.4901 29.6 34.8101 26.9 33.8501" fill="#27A94A"/>
</g>
<defs>
<clipPath id="clip0_2_48">
<rect width="67.81" height="54.58" fill="white"/>
</clipPath>
</defs>
</svg>
