<svg width="43" height="42" viewBox="0 0 43 42" fill="none" xmlns="http://www.w3.org/2000/svg">
<path d="M32.6848 10.5156C30.7994 9.28639 29.4387 7.31958 29.0142 5.02681C28.9225 4.53144 28.8721 4.02163 28.8721 3.5H22.8549L22.8453 27.6149C22.7441 30.3154 20.5215 32.4828 17.7969 32.4828C16.95 32.4828 16.1526 32.2711 15.4506 31.9016C13.8406 31.0544 12.7388 29.3668 12.7388 27.4248C12.7388 24.6356 15.0079 22.3665 17.7969 22.3665C18.3175 22.3665 18.8169 22.4524 19.2893 22.6003V16.4574C18.8004 16.3909 18.3037 16.3492 17.7969 16.3492C11.6898 16.3492 6.72156 21.3177 6.72156 27.4248C6.72156 31.1717 8.59363 34.4876 11.4497 36.4927C13.2486 37.7557 15.4369 38.5 17.7969 38.5C23.9039 38.5 28.8721 33.5318 28.8721 27.4248V15.1964C31.2322 16.8903 34.1236 17.8885 37.2436 17.8885V11.8713C35.5629 11.8713 33.9976 11.3716 32.6848 10.5156Z" fill="#22A922"/>
</svg>
