<svg width="43" height="42" viewBox="0 0 43 42" fill="none" xmlns="http://www.w3.org/2000/svg">
<path d="M21.8761 5.75806C13.2309 5.75806 6.1952 12.5346 6.19216 20.8628C6.19012 23.5261 6.91361 26.1253 8.28538 28.4147L6.06006 36.2419L14.375 34.1416C16.688 35.3515 19.2597 35.9826 21.87 35.9808H21.8761C30.5213 35.9808 37.557 29.2032 37.5601 20.875C37.5621 16.841 35.9322 13.0437 32.9702 10.1894C30.0092 7.33407 26.0717 5.75907 21.8761 5.75806ZM21.8761 33.4293H21.871C19.5319 33.4293 17.2375 32.8237 15.2357 31.6795L14.7581 31.4072L9.82583 32.653L11.1427 28.0194L10.8328 27.5449C9.53106 25.5595 8.83809 23.2369 8.83917 20.8628C8.84222 13.9399 14.6911 8.30956 21.8812 8.30956C25.3624 8.31057 28.6354 9.61833 31.0975 11.991C33.5596 14.3637 34.9141 17.5187 34.912 20.874C34.909 27.7969 29.0612 33.4293 21.8751 33.4293H21.8761ZM29.0266 24.025C28.6344 23.837 26.7078 22.9235 26.3481 22.7965C25.9894 22.6715 25.7283 22.6065 25.4671 22.9845C25.207 23.3625 24.455 24.213 24.2274 24.464C23.9978 24.716 23.7692 24.7465 23.3769 24.5585C22.9847 24.3695 21.7217 23.9712 20.2259 22.6847C19.0604 21.6849 18.2739 20.4493 18.0453 20.0702C17.8167 19.6932 18.0209 19.489 18.217 19.301C18.3928 19.1334 18.6093 18.861 18.8043 18.6405C18.9994 18.42 19.0645 18.2625 19.1966 18.0105C19.3266 17.7596 19.2616 17.538 19.163 17.3501C19.0645 17.16 18.2821 15.3026 17.9538 14.5476C17.6368 13.8119 17.3137 13.9105 17.0729 13.8983C16.8442 13.8881 16.5841 13.8851 16.3209 13.8851C16.0618 13.8851 15.6361 13.9796 15.2763 14.3576C14.9177 14.7356 13.9046 15.648 13.9046 17.5055C13.9046 19.364 15.3089 21.1585 15.505 21.4105C15.7011 21.6615 18.2688 25.475 22.2003 27.111C23.1351 27.4981 23.8647 27.7308 24.4347 27.9056C25.3736 28.1932 26.2282 28.1515 26.9029 28.055C27.6548 27.9463 29.2217 27.1425 29.5469 26.2615C29.8741 25.3805 29.8741 24.6245 29.7765 24.467C29.681 24.3095 29.4188 24.215 29.0266 24.025Z" fill="#22A922"/>
</svg>
