<svg width="23" height="22" viewBox="0 0 23 22" fill="none" xmlns="http://www.w3.org/2000/svg">
<g clip-path="url(#clip0_8_60)">
<path d="M9.46409 14.6033V13.7025H3.1673L3.15829 17.3058C3.15829 18.3057 3.96003 19.1075 4.95995 19.1075H17.5716C18.5715 19.1075 19.3732 18.3057 19.3732 17.3058V13.7025H13.0674V14.6033H9.46409ZM18.4724 6.49585H14.8601V4.69419L13.0584 2.89253H9.45508L7.66243 4.69419V6.49585H4.06362C3.06821 6.49585 2.26196 7.30209 2.26196 8.29751V11C2.26196 11.9954 3.06821 12.8017 4.06362 12.8017H9.4686V11H13.0719V12.8017H18.4769C19.4723 12.8017 20.2785 11.9954 20.2785 11V8.29751C20.274 7.30209 19.4678 6.49585 18.4724 6.49585ZM13.0629 6.49585H9.45959V4.69419H13.0629V6.49585Z" fill="#22A922"/>
</g>
<defs>
<clipPath id="clip0_8_60">
<rect width="21.6199" height="21.6199" fill="white" transform="translate(0.455811 0.190048)"/>
</clipPath>
</defs>
</svg>
